#!OML:ASF F:\VICON\USERDATA\INSTALL\rory3\rory3.ASF
:FULLY-SPECIFIED
:DEGREES
10
root 0.354277 17.9955 -21.608799999999974 -1.2571099999999993 -6.644730000000004 -5.879530000000007
lfemur -29.48149999999998 2.8272700000000084 -13.913900000000005
ltibia 53.762000000000015
lfoot -5.99709 3.809440000000002
ltoes -6.879640000000004
rfemur -4.326439999999977 5.96543 33.7327
rtibia 29.25870000000003
rfoot -18.64790000000002 -5.100290000000001
rtoes 9.63821
lowerback nan 1.1736099999999983 4.606370000000001
upperback 0.4937299999999999 2.37612 2.9685300000000017
thorax -6.1735099999999985 1.0721300000000007 0.12566499999999814
lowerneck -14.352600000000002 -2.6128099999999996 -1.75866
upperneck 20.4579 -3.2273099999999997 0.055505899999999886
head 8.79352 -1.6494000000000002 -0.06723409999999981
lclavicle -9.193789999999974e-16 2.5842e-14
lhumerus -34.70569999999999 5.206829999999996 82.6063
lradius 25.0708
lwrist 3.6340499999999993
lhand -28.6518 21.7493
lfingers nan
lthumb -2.01543 51.719500000000004
rclavicle -9.193789999999974e-16 2.5842e-14
rhumerus -24.422300000000003 -12.8233 -80.8919
rradius 28.391100000000005
rwrist -0.24409299999999234
rhand -18.0222 nan
rfingers nan
rthumb 8.24895 -6.210870000000002
11
root 0.352989 17.9675 -20.91910000000003 -0.5190319999999975 -7.255809999999994 -6.164240000000008
lfemur -30.409099999999974 2.1657899999999954 -13.547900000000016
ltibia 43.6722
lfoot -2.896349999999994 4.860710000000003
ltoes -5.961979999999999
rfemur -1.4994200000000095 6.324329999999995 34.06380000000002
rtibia 27.17749999999999
rfoot -19.4863 -5.4061100000000035
rtoes 7.243440000000003
lowerback nan 1.679400000000001 5.335120000000007
upperback 0.395544 3.0895100000000024 2.544469999999999
thorax -5.934529999999999 1.3994000000000013 -0.8306840000000029
lowerneck -15.0622 -2.95117 -1.3868399999999992
upperneck 20.4873 -3.79451 0.14634100000000022
head 8.93254 -1.8731800000000003 -0.17695600000000017
lclavicle 2.104629999999995e-14 2.2462700000000006e-14
lhumerus -35.3357 4.448479999999996 82.6181
lradius 24.8852
lwrist 3.87283
lhand -29.1801 21.450199999999995
lfingers nan
lthumb -2.5256200000000004 51.415000000000006
rclavicle 2.104629999999995e-14 2.2462700000000006e-14
rhumerus -22.772999999999996 -10.599499999999985 -82.17839999999998
rradius 30.5425
rwrist -1.4591599999999856
rhand -19.2137 nan
rfingers nan
rthumb 7.098880000000001 -7.380139999999999
12
root 0.3414749999999999 17.9311 -20.21539999999998 0.07186709999999952 -7.3774100000000065 -6.502990000000008
lfemur -29.908700000000035 0.43980699999999917 -12.557099999999991
ltibia 31.381000000000007
lfoot 1.7684300000000057 2.8095000000000105
ltoes -2.5610799999999987
rfemur 1.5996600000000196 6.069910000000002 34.511099999999985
rtibia 25.14389999999998
rfoot -20.46789999999998 -5.584410000000002
rtoes 8.338820000000009
lowerback nan 1.7979700000000016 5.428059999999993
upperback 0.32469099999999984 3.248069999999996 2.6670700000000007
thorax -5.838050000000001 1.4781300000000024 -0.7685480000000036
lowerneck -16.0295 -2.77675 -1.49728
upperneck 20.5768 -3.49946 0.11057300000000031
head 9.14032 -1.74274 -0.15078699999999973
lclavicle -2.2040300000000028e-14 -4.572050000000004e-15
lhumerus -36.0427 5.497569999999998 82.5372
lradius 24.3887
lwrist 3.1839
lhand -29.2558 22.3646
lfingers nan
lthumb -2.5987100000000005 52.3285
rclavicle -2.2040300000000028e-14 -4.572050000000004e-15
rhumerus -21.458000000000013 -7.925470000000001 -82.69540000000002
rradius 32.417
rwrist -2.6877799999999974
rhand -19.7744 nan
rfingers nan
rthumb 6.557580000000002 -6.97235
13
root 0.345514 17.8957 -19.492599999999975 0.4469910000000028 -7.8936700000000055 -6.939960000000003
lfemur -28.250100000000025 -3.5247599999999983 -10.474299999999992
ltibia 20.101400000000012
lfoot 0.6620540000000172 4.895980000000025
ltoes -5.2142300000000015
rfemur 5.059380000000049 5.793819999999997 34.91190000000002
rtibia 22.593200000000024
rfoot -20.066499999999976 -6.169900000000001
rtoes 2.998409999999998
lowerback nan 2.187240000000002 6.045430000000007
upperback 0.18714599999999976 3.819290000000004 2.495619999999999
thorax -5.75367 1.739279999999997 -1.3683100000000041
lowerneck -15.7149 -3.0031500000000007 -1.0780000000000012
upperneck 20.0874 -3.8745200000000004 -0.08929959999999981
head 8.90314 -1.9104 -0.3240880000000006
lclavicle 3.9222700000000046e-14 3.9756900000000084e-14
lhumerus -36.573800000000006 5.568300000000004 82.3901
lradius 23.160400000000006
lwrist 3.3509999999999986
lhand -29.1666 21.092399999999998
lfingers nan
lthumb -2.512600000000001 51.0574
rclavicle 3.9222700000000046e-14 3.9756900000000084e-14
rhumerus -20.6696 -7.229989999999999 -83.0031
rradius 34.01409999999999
rwrist -3.3128599999999997
rhand -19.624799999999997 nan
rfingers nan
rthumb 6.702009999999998 -7.582050000000001
14
root 0.374376 17.823 -18.73679999999994 0.4912990000000028 -8.440210000000011 -6.8462800000000055
lfemur -26.969500000000032 -6.659409999999995 -9.533119999999998
ltibia 13.696300000000026
lfoot -5.99576 8.759869999999998
ltoes 2.4031600000000033
rfemur 7.759059999999993 5.825439999999999 34.498099999999994
rtibia 22.5204
rfoot -19.332499999999982 -5.82376
rtoes 1.8682799999999986
lowerback nan 2.4273700000000034 6.107579999999995
upperback -0.11727199999999999 4.166709999999993 2.3663200000000004
thorax -6.10332 1.8898000000000017 -1.6034699999999984
lowerneck -15.0684 -2.92961 -1.1352699999999998
upperneck 19.9304 -3.78793 0.013207900000000161
head 8.73456 -1.8665100000000001 -0.25687900000000025
lclavicle -1.1554400000000023e-15 1.0734400000000022e-14
lhumerus -37.82860000000001 6.71154000000001 81.8173
lradius 22.321000000000005
lwrist 2.0572900000000023
lhand -29.0103 19.631899999999998
lfingers nan
lthumb -2.3616200000000003 49.5986
rclavicle -1.1554400000000023e-15 1.0734400000000022e-14
rhumerus -20.557600000000022 -6.702770000000003 -83.03990000000002
rradius 34.82140000000002
rwrist -3.53695
rhand -20.405900000000003 nan
rfingers nan
rthumb 5.947920000000001 -7.44286
15
root 0.399759 17.7583 -17.968599999999967 0.37554899999999414 -8.330990000000009 -6.410579999999994
lfemur -26.663600000000038 -3.3538600000000027 -12.257999999999988
ltibia 15.079
lfoot -7.043650000000002 6.4448200000000035
ltoes 4.556609999999976
rfemur 9.378640000000049 6.311110000000005 33.916000000000004
rtibia 24.765900000000016
rfoot -19.255799999999986 -5.719479999999999
rtoes -4.305450000000007
lowerback nan 2.558100000000003 5.701610000000006
upperback 0.04608449999999947 4.263789999999999 2.2099700000000007
thorax -5.904449999999999 1.9565900000000023 -1.5489500000000018
lowerneck -16.051 -2.96042 -1.1437000000000008
upperneck 20.2805 -3.8431499999999996 0.11807900000000054
head 9.03686 -1.8754099999999998 -0.2468019999999997
lclavicle -2.758139999999999e-15 1.431250000000002e-14
lhumerus -37.60829999999999 8.044700000000004 81.2592
lradius 20.642899999999987
lwrist 0.5687920000000011
lhand -28.5506 21.672999999999995
lfingers nan
lthumb -1.9177299999999997 51.644200000000005
rclavicle -2.758139999999999e-15 1.431250000000002e-14
rhumerus -19.849599999999988 -6.774370000000005 -83.02899999999998
rradius 35.183700000000016
rwrist -3.4003000000000165
rhand -20.5854 nan
rfingers nan
rthumb 5.774650000000002 -7.32803
16
root 0.424837 17.7096 -17.13919999999994 0.2571389999999969 -7.662720000000009 -6.288419999999999
lfemur -27.474300000000017 -1.03549 -14.6481
ltibia 21.0544
lfoot -3.4403899999999963 2.21781000000001
ltoes -1.3654899999999963
rfemur 10.046099999999965 6.353530000000001 33.56079999999999
rtibia 28.783599999999986
rfoot -18.108100000000007 -3.966069999999995
rtoes -6.505020000000017
lowerback nan 2.5409899999999963 5.7735699999999905
upperback 0.16289500000000062 4.188339999999999 2.04759
thorax -5.43837 1.9330400000000019 -1.7113399999999976
lowerneck -16.386200000000002 -3.0771699999999997 -0.9439120000000011
upperneck 20.3443 -4.050279999999999 0.10157500000000047
head 9.11644 -1.95639 -0.31763899999999917
lclavicle -1.6151300000000196e-16 1.6598499999999992e-14
lhumerus -37.545399999999994 8.774720000000006 80.7789
lradius 19.39560000000001
lwrist 0.037453999999993215
lhand -29.1608 20.480300000000007
lfingers nan
lthumb -2.5069900000000005 50.445299999999996
rclavicle -1.6151300000000196e-16 1.6598499999999992e-14
rhumerus -19.83890000000002 -7.856010000000001 -82.92009999999999
rradius 34.88550000000001
rwrist -2.660589999999984
rhand -20.7688 nan
rfingers nan
rthumb 5.597550000000004 -6.97855
17
root 0.4452030000000001 17.742 -16.266000000000048 -0.5752689999999978 -6.617849999999989 -4.843019999999999
lfemur -26.81770000000002 -2.0255100000000015 -16.560899999999993
ltibia 24.427399999999974
lfoot -2.202900000000003 -3.5512900000000025
ltoes -2.2437900000000024
rfemur 9.691700000000052 5.355260000000002 31.6967
rtibia 34.964199999999984
rfoot -13.084600000000005 -2.276549999999995
rtoes -10.572199999999981
lowerback nan 2.4369699999999996 4.200339999999997
upperback -0.1850679999999994 3.8721599999999947 1.7411199999999998
thorax -6.004069999999999 1.799000000000002 -1.1325800000000057
lowerneck -15.754 -3.2147099999999997 -0.8789179999999992
upperneck 21.1506 -4.23917 -0.0616511000000004
head 9.27508 -2.0563999999999996 -0.40588999999999986
lclavicle -9.628630000000014e-15 -2.5543799999999998e-14
lhumerus -38.317499999999995 9.685529999999993 79.9707
lradius 17.84829999999998
lwrist -1.227200000000006
lhand -28.9521 21.542
lfingers nan
lthumb -2.3054500000000004 51.5092
rclavicle -9.628630000000014e-15 -2.5543799999999998e-14
rhumerus -21.868100000000013 -8.786110000000024 -82.45310000000002
rradius 34.6465
rwrist -2.2787600000000205
rhand -20.226800000000004 nan
rfingers nan
rthumb 6.120810000000001 -6.449460000000001
18
root 0.457979 17.7607 -15.407199999999937 -1.3203600000000009 -5.147850000000005 -3.7248399999999995
lfemur -25.669599999999974 -0.7395129999999994 -19.0125
ltibia 28.37160000000001
lfoot -2.0451500000000005 -5.60395
ltoes 2.3603300000000056
rfemur 6.508609999999953 2.802230000000001 29.45949999999999
rtibia 44.315799999999996
rfoot -0.6748449999999995 0.37141999999999076
rtoes -3.8873400000000213
lowerback nan 2.2056100000000027 3.004209999999999
upperback -0.01034650000000098 3.3848800000000017 1.4971199999999991
thorax -5.752749999999999 1.5993299999999981 -0.6323650000000021
lowerneck -16.0312 -3.493490000000001 -1.2856600000000007
upperneck 21.5743 -4.650500000000003 0.45858900000000014
head 9.50101 -2.217490000000001 -0.22338999999999964
lclavicle 1.7722900000000023e-14 1.1430099999999984e-14
lhumerus -37.85180000000001 10.98759999999999 79.0652
lradius 16.6855
lwrist -2.88222000000001
lhand -28.4168 21.3286
lfingers nan
lthumb -1.7884200000000001 51.3009
rclavicle 1.7722900000000023e-14 1.1430099999999984e-14
rhumerus -23.150200000000012 -10.511300000000015 -81.93860000000001
rradius 33.463199999999986
rwrist -1.2742599999999955
rhand -19.852300000000003 nan
rfingers nan
rthumb 6.482389999999997 -6.61625
